Coordinates
version=1
nRows=8
nColumns=63
inDegrees=yes

Units are S.I. units (second, meters, Newtons, ...)
If the header above contains a line with 'inDegrees', this indicates whether rotational values are in degrees (yes) or radians (no).

endheader
time	pelvis_tilt	pelvis_list	pelvis_rotation	pelvis_tx	pelvis_ty	pelvis_tz	hip_flexion_r	hip_adduction_r	hip_rotation_r	knee_angle_r	knee_angle_r_beta	ankle_angle_r	subtalar_angle_r	mtp_angle_r	hip_flexion_l	hip_adduction_l	hip_rotation_l	knee_angle_l	knee_angle_l_beta	ankle_angle_l	subtalar_angle_l	mtp_angle_l	L5_S1_Flex_Ext	L5_S1_Lat_Bending	L5_S1_axial_rotation	L4_L5_Flex_Ext	L4_L5_Lat_Bending	L4_L5_axial_rotation	L3_L4_Flex_Ext	L3_L4_Lat_Bending	L3_L4_axial_rotation	L2_L3_Flex_Ext	L2_L3_Lat_Bending	L2_L3_axial_rotation	L1_L2_Flex_Ext	L1_L2_Lat_Bending	L1_L2_axial_rotation	L1_T12_Flex_Ext	L1_T12_Lat_Bending	L1_T12_axial_rotation	Abs_r3	Abs_r2	Abs_r1	Abs_t1	Abs_t2	neck_flexion	neck_bending	neck_rotation	arm_flex_r	arm_add_r	arm_rot_r	elbow_flex_r	pro_sup_r	wrist_flex_r	wrist_dev_r	arm_flex_l	arm_add_l	arm_rot_l	elbow_flex_l	pro_sup_l	wrist_flex_l	wrist_dev_l
      0.69565217	     -4.96479815	     -0.89841785	     98.75413052	      0.31244982	      0.73222992	      0.88761412	      4.24556307	      0.34152470	    -12.12436702	     13.79315276	      0.24073593	     27.61328149	     10.44728359	      0.00000000	      8.32498554	     -1.41721890	     -5.84449755	     21.70567979	      0.37883558	     29.74151315	     11.06640048	      0.00000000	     -0.02424313	      0.12746631	     -2.09992491	     -0.04502192	      0.16953019	     -2.23117022	     -0.03982904	      0.30992158	     -2.23117022	     -0.02770747	      0.30992158	     -1.83743430	     -0.02251217	      0.25992930	     -1.70618899	     -0.01385252	      0.19744531	     -1.57494368	     -0.17316625	      1.44192437	    -11.67915238	      0.00000000	      0.00000000	     18.93030396	     -1.00577090	     -3.41626921	     20.09922352	    -11.43088613	     -5.86014998	    107.37822157	     89.32352036	     -2.81270110	     18.34902779	      5.62962635	    -11.86428573	     10.70023356	     67.45215123	     88.94299778	     -8.63052298	     10.48663842
      0.71739130	     -5.10607128	     -0.55074446	     97.83287529	      0.31394539	      0.73113030	      0.88465910	      4.73876918	      0.08435587	    -11.75040017	     15.77837044	      0.27538451	     28.57030720	     10.93041502	      0.00000000	      8.50316188	     -1.48314506	     -6.10768087	     23.40319555	      0.40846282	     30.68226065	     10.31562296	      0.00000000	     -0.03439162	      0.12819056	     -2.06024445	     -0.06386867	      0.17049345	     -2.18900973	     -0.05650199	      0.31168254	     -2.18900973	     -0.03930618	      0.31168254	     -1.80271390	     -0.03193605	      0.26140620	     -1.67394862	     -0.01965137	      0.19856718	     -1.54518334	     -0.24565587	      1.45011731	    -11.45846158	      0.00000000	      0.00000000	     18.53734204	     -1.09131522	     -2.99548572	     22.72638524	    -10.81783541	     -9.65460569	    110.36465991	     89.28842452	     -4.05905927	     14.25189329	      4.78933492	    -12.45291957	      9.67195364	     65.08002393	     88.94278797	     -8.79272807	     10.95045797
      0.73913043	     -5.41308359	     -0.07286958	     96.42319069	      0.31600165	      0.73038671	      0.88041003	      4.93118503	     -0.29830514	    -11.13657940	     17.50841909	      0.30557956	     29.51970993	     11.74473801	      0.00000000	      8.16285153	     -1.36934691	     -6.70992667	     24.61400746	      0.42959547	     31.35890547	      9.11755126	      0.00000000	     -0.04524664	      0.11269636	     -1.98508156	     -0.08402753	      0.14988615	     -2.10914916	     -0.07433570	      0.27400992	     -2.10914916	     -0.05171238	      0.27400992	     -1.73694637	     -0.04201603	      0.22981041	     -1.61287877	     -0.02585393	      0.17456666	     -1.48881117	     -0.32319222	      1.27484372	    -11.04042813	      0.00000000	      0.00000000	     17.67328390	     -1.10415350	     -2.22139594	     24.85054586	     -9.99254390	    -13.25704738	    113.58938024	     89.16040399	     -5.63210568	      7.86572695	      3.19876774	    -13.11776744	      8.68251961	     62.41265775	     88.96001455	     -9.49326897	      9.94660645
      0.76086957	     -5.71962643	      0.45322203	     95.00840434	      0.31801284	      0.72962024	      0.87584638	      5.08224675	     -0.67695059	    -10.46743513	     19.26122435	      0.33617178	     30.56066119	     12.25278169	      0.00000000	      7.72743637	     -1.25933234	     -7.46838572	     25.77102031	      0.44978916	     32.07926654	      8.10006678	      0.00000000	     -0.05983181	      0.10303704	     -1.99368421	     -0.11111366	      0.13703926	     -2.11828948	     -0.09829769	      0.25052425	     -2.11828948	     -0.06838178	      0.25052425	     -1.74447369	     -0.05555982	      0.21011312	     -1.61986842	     -0.03418790	      0.15960437	     -1.49526316	     -0.42737266	      1.16557556	    -11.08827349	      0.00000000	      0.00000000	     16.83323696	     -0.88837619	     -0.48907755	     27.47658540	     -8.53603338	    -16.72723004	    116.66440302	     88.85692415	     -6.84530859	      1.72392107	      1.30404087	    -14.04119336	      8.25929402	     59.31586165	     89.06518718	    -11.75934235	      7.13683100
      0.78260870	     -5.95699008	      1.03227504	     93.61027333	      0.31964884	      0.72889137	      0.87086041	      5.11803286	     -0.98723547	     -9.73743512	     20.89907400	      0.36475765	     31.72085797	     12.59338649	      0.00000000	      7.19845402	     -1.20316589	     -8.36978249	     26.88048311	      0.46915293	     32.86609761	      7.26943697	      0.00000000	     -0.07746759	      0.10675171	     -2.02849793	     -0.14386506	      0.14197978	     -2.15527905	     -0.12727150	      0.25955611	     -2.15527905	     -0.08853771	      0.25955611	     -1.77493569	     -0.07193640	      0.21768809	     -1.64815457	     -0.04426498	      0.16535840	     -1.52137345	     -0.55334323	      1.20759672	    -11.28189694	      0.00000000	      0.00000000	     16.04248715	     -0.77224227	      1.41168289	     30.43592836	     -6.53453045	    -20.24838245	    119.91905856	     88.31775524	     -8.48718305	     -2.90510537	     -0.29793031	    -15.09331110	      9.32494184	     55.42412620	     89.17431212	    -16.40337989	      2.83203635
      0.80434783	     -6.08227814	      1.61130001	     92.05600952	      0.32093201	      0.72801945	      0.86524542	      5.08569882	     -1.21152944	     -8.93189501	     22.40807574	      0.39109470	     33.05445455	     13.14814388	      0.00000000	      6.57292121	     -1.19554654	     -9.34011932	     27.90354843	      0.48700879	     33.66023046	      6.25826671	      0.00000000	     -0.08591616	      0.12955078	     -1.98751887	     -0.15955490	      0.17230253	     -2.11173880	     -0.14115166	      0.31498976	     -2.11173880	     -0.09819358	      0.31498976	     -1.73907901	     -0.07978175	      0.26417995	     -1.61485908	     -0.04909249	      0.20067416	     -1.49063915	     -0.61369053	      1.46550431	    -11.05398369	      0.00000000	      0.00000000	     15.41691944	     -0.79723302	      3.01674559	     33.16522087	     -4.13101489	    -24.44397828	    124.08037171	     87.57479929	     -9.74472010	     -6.29218236	     -1.60097918	    -15.80984271	     11.16679437	     50.79324299	     89.20927442	    -20.59096073	     -1.06937066
      0.82608696	     -5.92051803	      2.25613102	     90.67283915	      0.32140631	      0.72705168	      0.85903342	      4.83910197	     -1.15234626	     -8.14813938	     23.74411306	      0.41441295	     34.40373502	     13.58244261	      0.00000000	      5.83129073	     -1.42062025	    -10.14342207	     28.94653381	      0.50521232	     34.39857822	      5.28770841	      0.00000000	     -0.10174557	      0.18635038	     -1.82921283	     -0.18895171	      0.24784601	     -1.94353864	     -0.16715780	      0.45309232	     -1.94353864	     -0.11628502	      0.45309232	     -1.60056123	     -0.09448094	      0.38000570	     -1.48623543	     -0.05813742	      0.28865674	     -1.37190963	     -0.72675846	      2.10803278	    -10.17353302	      0.00000000	      0.00000000	     15.30449169	     -1.02546661	      3.33787869	     35.67892580	     -1.82087716	    -29.72740320	    129.68547398	     86.30516994	    -11.58674099	     -9.05239381	     -2.36517778	    -16.24730339	     14.70013885	     45.62755185	     89.09717566	    -23.81251773	     -3.02300242
      0.84782609	     -5.56909829	      3.03530285	     89.35037319	      0.32123532	      0.72633006	      0.85167756	      4.21341314	     -0.91898456	     -7.35143398	     24.83961753	      0.43353311	     35.60967261	     13.83964275	      0.00000000	      4.70082005	     -1.71719180	    -10.81414954	     29.69061726	      0.51819903	     35.05244320	      4.17372945	      0.00000000	     -0.11975320	      0.26665111	     -1.57658485	     -0.22239367	      0.35464597	     -1.67512141	     -0.19674253	      0.64833551	     -1.67512141	     -0.13686593	      0.64833551	     -1.37951175	     -0.11120282	      0.54375494	     -1.28097519	     -0.06842698	      0.41304257	     -1.18243864	     -0.85538514	      3.01641067	     -8.76849198	      0.00000000	      0.00000000	     15.17188994	     -1.09914253	      3.13551829	     38.67196048	     -0.12537265	    -35.66458859	    135.90971730	     83.81490161	    -14.08480657	    -11.65889057	     -3.24010775	    -16.07516718	     18.26699002	     40.45956366	     88.81873851	    -23.85763899	     -2.98730247
